<?xml version="1.0" standalone="no"?>
<!DOCTYPE svg PUBLIC "-//W3C//DTD SVG 20010904//EN"
 "http://www.w3.org/TR/2001/REC-SVG-20010904/DTD/svg10.dtd">
<svg version="1.0" xmlns="http://www.w3.org/2000/svg"
 width="1024.000000pt" height="1024.000000pt" viewBox="0 0 1024.000000 1024.000000"
 preserveAspectRatio="xMidYMid meet">
<metadata>
Created by potrace 1.14, written by Peter Selinger 2001-2017
</metadata>
<g transform="translate(0.000000,1024.000000) scale(0.100000,-0.100000)"
fill="#000000" stroke="none">
<path d="M0 5120 l0 -5120 4720 0 4720 0 0 80 0 80 240 0 240 0 0 -80 0 -80
160 0 160 0 0 5120 0 5120 -5120 0 -5120 0 0 -5120z m5620 3475 c248 -19 342
-33 570 -85 74 -17 153 -36 175 -42 80 -22 422 -161 540 -219 124 -61 138 -69
192 -106 17 -13 34 -23 37 -23 8 0 140 -86 221 -144 157 -112 421 -356 548
-506 441 -521 698 -1118 771 -1790 34 -306 32 -412 -11 -745 -80 -623 -321
-1186 -715 -1672 -127 -156 -390 -410 -512 -493 -11 -8 -48 -35 -81 -61 -108
-83 -294 -193 -504 -299 -176 -88 -489 -209 -509 -196 -5 3 -58 -6 -118 -20
-354 -80 -459 -98 -693 -114 -261 -18 -587 15 -882 90 -261 67 -540 167 -699
252 -188 101 -222 119 -275 153 -30 19 -56 35 -59 35 -18 0 -284 202 -399 302
-270 237 -497 515 -657 808 -29 52 -67 122 -85 155 -34 63 -158 368 -171 420
-4 17 -13 41 -20 55 -7 14 -24 75 -39 135 -14 61 -30 126 -35 145 -41 158 -75
574 -65 810 22 566 153 1024 438 1525 150 263 345 508 602 758 126 122 407
336 543 414 26 14 70 41 97 58 55 35 261 136 340 166 28 11 59 24 70 29 109
49 426 139 654 185 57 12 329 32 441 34 58 0 188 -6 290 -14z"/>
<path d="M4420 7950 c0 -5 5 -10 10 -10 6 0 10 5 10 10 0 6 -4 10 -10 10 -5 0
-10 -4 -10 -10z"/>
<path d="M4190 7890 c-12 -8 -12 -10 5 -10 11 0 27 5 35 10 12 8 12 10 -5 10
-11 0 -27 -5 -35 -10z"/>
<path d="M4110 7838 c-22 -24 -13 -38 27 -38 23 0 32 15 25 43 -6 23 -27 21
-52 -5z"/>
<path d="M4066 7803 c-4 -5 -11 -8 -14 -9 -26 -3 -62 -18 -62 -25 0 -5 7 -5
17 -2 11 4 14 3 9 -5 -10 -16 55 -3 72 15 11 11 11 13 -3 13 -9 0 -13 5 -10
10 7 12 2 13 -9 3z"/>
<path d="M3281 7741 c-15 -11 -18 -18 -8 -18 8 0 19 9 26 19 14 22 12 22 -18
-1z"/>
<path d="M3960 7753 c0 -4 -24 -9 -54 -9 -50 -1 -111 -21 -76 -25 8 -1 -1 -5
-20 -9 l-35 -8 35 1 c24 2 34 6 32 16 -2 11 8 13 53 7 43 -5 60 -3 71 8 9 9
10 17 4 21 -5 3 -10 3 -10 -2z"/>
<path d="M3695 7740 c-3 -5 1 -10 9 -10 9 0 16 5 16 10 0 6 -4 10 -9 10 -6 0
-13 -4 -16 -10z"/>
<path d="M3315 7731 c-3 -5 -1 -12 5 -16 5 -3 10 1 10 9 0 18 -6 21 -15 7z"/>
<path d="M3239 7698 c-10 -7 -9 -8 6 -3 18 6 18 4 -3 -18 -12 -13 -22 -34 -22
-46 0 -20 -4 -23 -33 -19 -27 3 -37 -2 -52 -22 -16 -21 -16 -23 -2 -11 10 8
17 9 17 3 0 -6 -9 -14 -20 -17 -11 -3 -20 -11 -20 -16 0 -5 -7 -9 -15 -9 -8 0
-22 -12 -32 -26 -9 -14 -43 -55 -76 -90 -32 -35 -83 -96 -113 -136 -29 -40
-64 -86 -76 -103 -83 -107 -198 -298 -198 -328 0 -8 -9 -22 -20 -32 -11 -10
-20 -25 -20 -33 0 -7 -7 -26 -15 -40 -24 -43 -105 -231 -131 -307 -29 -81 -63
-187 -64 -197 -1 -4 -6 -22 -11 -40 -37 -122 -76 -297 -94 -428 -34 -240 -36
-805 -4 -924 6 -23 15 -63 19 -91 23 -136 46 -229 93 -375 11 -36 22 -72 23
-80 4 -23 69 -208 94 -265 30 -71 133 -279 140 -285 4 -3 25 -41 49 -85 24
-44 46 -82 50 -85 4 -3 22 -29 40 -59 18 -30 63 -91 100 -135 36 -45 79 -98
94 -118 87 -118 305 -319 478 -442 259 -185 456 -302 607 -360 129 -50 145
-55 297 -91 77 -18 163 -40 192 -48 158 -45 947 -47 991 -2 4 4 -1 12 -11 19
-9 7 -17 21 -17 30 0 9 -8 16 -20 16 -11 0 -20 5 -20 11 0 5 -4 8 -9 5 -5 -3
-15 1 -22 10 -11 14 -8 15 29 9 24 -3 42 -2 42 3 0 6 -30 10 -67 11 -37 0 -69
5 -72 10 -4 5 -19 13 -34 16 -17 5 -27 14 -27 26 0 13 -7 19 -22 18 -17 -1
-19 -2 -5 -6 9 -2 17 -9 17 -14 0 -5 -13 -3 -30 6 -16 8 -45 15 -65 15 -24 0
-35 5 -35 15 0 8 -12 18 -27 21 -16 4 -34 11 -41 17 -10 8 -16 7 -22 -4 -7
-10 -9 -9 -8 7 2 16 7 20 23 16 18 -5 19 -4 4 11 -12 12 -28 15 -60 11 -55 -7
-55 -7 -104 4 -66 16 -105 33 -105 47 0 7 -9 15 -20 18 -11 3 -20 12 -20 21 0
11 -9 16 -30 16 -16 0 -30 4 -30 9 0 5 -24 20 -52 34 -36 18 -46 20 -31 8 12
-10 20 -21 17 -24 -6 -6 -18 2 -55 35 -10 10 -25 18 -33 18 -7 0 -34 9 -60 20
-40 18 -50 31 -48 60 1 13 -49 9 -54 -4 -8 -21 -58 -1 -85 32 -11 15 -22 26
-22 24 -5 -9 -37 12 -37 23 0 7 -7 18 -15 25 -8 7 -15 20 -15 29 0 25 46 25
70 1 12 -12 26 -18 31 -14 8 4 7 9 -2 15 -27 16 3 22 105 20 103 -2 104 -2
110 23 5 20 13 26 34 26 15 0 33 -5 38 -10 7 -7 33 -7 80 0 38 5 89 10 113 10
30 0 48 6 57 18 16 21 18 62 3 62 -5 0 -7 -5 -4 -10 10 -16 -5 -50 -21 -50 -9
0 -23 7 -31 16 -14 13 -14 17 -2 25 10 6 7 9 -13 9 -18 0 -28 -5 -28 -15 0 -8
-4 -15 -9 -15 -13 0 -41 29 -41 41 0 6 -7 3 -16 -5 -20 -20 -22 -20 -67 4 -30
16 -37 17 -37 5 0 -8 -13 -16 -32 -19 -43 -7 -98 -3 -98 7 0 4 -7 7 -15 7 -8
0 -15 -4 -15 -9 0 -12 -29 -23 -41 -15 -5 3 -42 7 -82 9 -39 1 -81 6 -91 11
-13 5 -17 4 -13 -3 8 -13 -33 -25 -47 -14 -6 4 -28 8 -49 10 -32 2 -39 -1 -44
-18 -6 -23 -11 -25 -33 -11 -12 7 -12 12 4 29 16 17 16 21 4 21 -8 0 -28 7
-45 15 -16 8 -43 16 -59 17 -16 1 -41 13 -56 26 -16 15 -34 23 -46 20 -11 -3
-23 2 -30 12 -6 9 -23 20 -39 23 -15 4 -36 18 -47 33 -17 25 -18 28 -2 60 18
39 24 40 87 18 51 -19 99 -13 99 11 0 8 5 15 10 15 6 0 10 5 10 10 0 6 -6 10
-13 10 -8 0 -26 13 -40 30 -15 17 -35 30 -45 31 -11 1 -9 4 8 9 19 6 9 8 -37
9 -56 1 -63 3 -63 21 0 13 -7 20 -20 20 -13 0 -20 7 -20 20 0 13 -7 20 -20 20
-13 0 -20 7 -20 19 0 19 -46 37 -52 19 -5 -13 -68 3 -68 18 0 7 10 15 23 17
22 4 22 4 0 6 -14 1 -23 9 -26 24 l-4 22 -2 -22 c-1 -25 -31 -33 -31 -9 0 9
-15 17 -40 21 -30 5 -40 11 -40 26 0 12 -7 19 -20 19 -11 0 -20 6 -20 14 0 7
-13 16 -30 20 -30 6 -41 30 -17 39 6 3 2 6 -10 6 -12 1 -24 9 -26 19 -4 13 -5
11 -6 -5 -1 -15 -7 -23 -20 -23 -11 0 -18 6 -17 16 2 27 -23 28 -34 2 -10 -23
-11 -23 -6 0 4 19 -2 24 -40 33 -24 6 -49 18 -55 25 -6 8 -31 23 -55 34 -24
10 -44 23 -44 28 0 26 -96 38 -235 31 -81 -4 -154 18 -168 51 -6 14 -17 32
-25 41 -17 21 -7 80 19 110 14 17 17 31 13 59 -4 23 -2 40 5 44 11 7 40 -5 63
-26 7 -7 39 -33 71 -57 47 -36 60 -41 72 -31 10 8 31 10 62 6 27 -3 43 -3 36
0 -6 3 -10 16 -7 28 3 16 -4 29 -20 41 -26 20 -24 45 3 45 9 0 12 3 6 8 -22
16 -35 54 -35 102 0 43 -3 52 -22 59 -13 5 -26 7 -30 4 -5 -2 -8 5 -8 16 0 12
-4 21 -10 21 -5 0 -10 20 -10 44 0 55 -8 76 -29 77 -10 0 -11 2 -3 6 23 9 12
23 -19 23 -16 0 -28 4 -25 9 3 5 -1 14 -9 21 -18 15 -19 50 -2 73 7 10 12 38
11 62 -1 25 3 45 8 45 12 0 2 64 -15 91 -8 13 -8 24 2 42 7 14 11 31 8 39 -3
8 -8 4 -15 -12 -7 -16 -11 -19 -11 -9 -1 9 6 22 14 29 20 17 19 47 -2 59 -15
8 -18 23 -17 85 1 42 -3 76 -7 76 -5 0 -9 15 -8 33 0 17 3 26 6 20 8 -20 23
-15 23 8 0 13 -4 18 -12 13 -10 -6 -10 -5 -1 7 13 17 20 120 8 138 -4 8 -2 17
6 21 9 6 10 12 2 22 -20 24 -19 66 2 82 19 14 18 15 -10 7 -35 -9 -75 5 -75
27 0 18 31 85 43 93 5 4 8 29 6 56 -3 31 1 55 8 62 15 13 14 83 0 92 -6 5 -6
22 1 50 6 24 8 68 5 98 -4 40 -2 57 8 65 18 14 42 83 34 96 -3 5 -1 10 4 10
14 0 14 33 2 45 -12 12 -2 95 10 95 5 0 9 14 9 30 0 17 4 30 9 30 8 0 11 27
28 193 3 31 9 60 14 63 5 3 9 11 9 17 0 7 -4 6 -10 -3 -9 -14 -12 -8 -9 17 0
3 -14 12 -32 20 -42 17 -58 40 -59 81 0 36 26 56 41 30 5 -8 25 -28 46 -43 21
-16 35 -25 30 -20 -9 10 21 45 40 45 7 0 13 7 13 15 0 8 -4 15 -10 15 -5 0
-10 5 -10 11 0 16 26 39 44 39 9 0 16 8 16 20 0 11 5 20 10 20 6 0 10 18 10
40 0 22 4 40 9 40 5 0 7 -10 5 -22 -4 -21 -4 -21 4 -3 5 11 7 26 4 34 -3 9 -1
12 6 7 12 -7 21 4 27 31 6 34 44 113 54 113 13 0 91 116 91 136 0 22 27 48 33
31 3 -6 8 3 12 21 4 17 11 32 15 32 5 0 13 14 19 30 5 17 16 30 23 30 15 0 38
45 38 73 0 11 10 28 22 39 39 33 -2 96 -43 66z m-487 -1098 c-2 -22 -6 -40 -8
-40 -2 0 -4 18 -4 40 0 22 3 40 8 40 4 0 6 -18 4 -40z m-65 -1772 c-2 -13 -4
-3 -4 22 0 25 2 35 4 23 2 -13 2 -33 0 -45z m983 -1253 c0 -8 -7 -15 -15 -15
-8 0 -15 7 -15 15 0 8 7 15 15 15 8 0 15 -7 15 -15z m370 -595 c0 -11 -2 -20
-3 -20 -2 0 -12 9 -22 20 -18 19 -17 20 3 20 15 0 22 -6 22 -20z m380 -124
c-7 -7 -13 -7 -20 0 -6 6 -3 10 10 10 13 0 16 -4 10 -10z m957 -427 c-14 -8
-22 -8 -30 0 -8 8 -3 11 19 11 25 -1 27 -2 11 -11z"/>
<path d="M3635 7673 c1 -16 0 -20 -2 -10 -6 25 -27 21 -63 -11 -34 -31 -31
-42 12 -42 26 0 148 54 148 65 0 2 -15 2 -32 0 -18 -3 -27 -3 -20 1 18 9 4 24
-22 24 -18 0 -22 -5 -21 -27z"/>
<path d="M3758 7683 c7 -3 16 -2 19 1 4 3 -2 6 -13 5 -11 0 -14 -3 -6 -6z"/>
<path d="M3885 3220 c3 -5 8 -10 11 -10 2 0 4 5 4 10 0 6 -5 10 -11 10 -5 0
-7 -4 -4 -10z"/>
<path d="M4860 2671 c33 -6 34 -7 10 -14 -21 -6 -22 -9 -10 -17 20 -13 47 -13
55 0 12 20 -17 40 -54 39 l-36 -2 35 -6z"/>
<path d="M4958 2628 c5 -5 16 -8 23 -6 8 3 3 7 -10 11 -17 4 -21 3 -13 -5z"/>
<path d="M5498 2393 c7 -3 16 -2 19 1 4 3 -2 6 -13 5 -11 0 -14 -3 -6 -6z"/>
</g>
</svg>
